<svg width="21" height="25" viewBox="0 0 21 25" fill="none" xmlns="http://www.w3.org/2000/svg">
<path d="M6.12448 15.4571L4.02821 13.4607C3.28998 12.7576 2.11476 12.811 1.44343 13.5783C0.836729 14.2717 0.854589 15.3121 1.48473 15.9842L8.31797 23.2731C8.7528 23.7368 9.35908 24 9.9948 24C11.2426 24 13.2939 24 15.3245 24C18.0845 24 19.9245 21.7 19.9245 19.4C19.9245 19.4 19.9245 11.5143 19.9245 9.54285" stroke="white" stroke-width="2" stroke-linecap="round" stroke-linejoin="round"/>
<path d="M16.4744 10.1999C16.4744 10.1999 16.4744 10.056 16.4744 9.54278C16.4744 6.91421 19.9244 6.91421 19.9244 9.54278" stroke="white" stroke-width="2" stroke-linecap="round" stroke-linejoin="round"/>
<circle cx="12.5" cy="17.5" r="3.5" fill="#0075FF"/>
<path d="M13.0245 10.2C13.0245 10.2 13.0245 9.25509 13.0245 8.22857C13.0245 5.6 16.4745 5.6 16.4745 8.22857C16.4745 8.4852 16.4745 9.28623 16.4745 9.54285C16.4745 10.0561 16.4745 10.2 16.4745 10.2" stroke="white" stroke-width="2" stroke-linecap="round" stroke-linejoin="round"/>
<path d="M9.57446 10.2001C9.57446 10.2001 9.57446 8.60822 9.57446 7.32506C9.57446 4.6965 13.0245 4.6965 13.0245 7.32506C13.0245 7.32506 13.0245 7.97201 13.0245 8.22864C13.0245 9.25515 13.0245 10.2001 13.0245 10.2001" stroke="white" stroke-width="2" stroke-linecap="round" stroke-linejoin="round"/>
<path d="M6.12451 15.4571V2.725C6.12451 1.77231 6.89682 1 7.84951 1C8.80217 1 9.57451 1.77114 9.57451 2.72384C9.57451 4.09313 9.57451 5.99279 9.57451 7.325C9.57451 8.60815 9.57451 10.2 9.57451 10.2" stroke="white" stroke-width="2" stroke-linecap="round" stroke-linejoin="round"/>
</svg>
